HIERARCHY
ROOT Hips
{
	OFFSET 0.00 0.00 0.00
	CHANNELS 6 Xposition Yposition Zposition Yrotation Xrotation Zrotation
	JOINT LHipJoint
	{
		OFFSET	0.0000	0.0000	0.0000
		CHANNELS 3 Yrotation Xrotation Zrotation
		JOINT LeftUpLeg
		{
			OFFSET	1.0138	-0.0809	-0.0827
			CHANNELS 3 Yrotation Xrotation Zrotation
			JOINT LeftLeg
			{
				OFFSET	0.4110	-3.9095	0.3245
				CHANNELS 3 Yrotation Xrotation Zrotation
				JOINT LeftFoot
				{
					OFFSET	0.3810	-4.0555	-0.1470
					CHANNELS 3 Yrotation Xrotation Zrotation
					JOINT LeftToeBase
					{
						OFFSET	0.1396	-0.4462	1.3079
						CHANNELS 3 Yrotation Xrotation Zrotation
						End Site
						{
							OFFSET 0.0161 -0.0248 0.1809
						}
					}
				}
			}
		}
	}
	JOINT LowerBack
	{
		OFFSET	0.0000	0.7977	-0.3873
		CHANNELS 3 Yrotation Xrotation Zrotation
		JOINT Spine
		{
			OFFSET	0.0000	1.4131	0.1715
			CHANNELS 3 Yrotation Xrotation Zrotation
			JOINT Spine1
			{
				OFFSET	0.0000	1.4392	-0.1032
				CHANNELS 3 Yrotation Xrotation Zrotation
				JOINT LeftShoulder
				{
					OFFSET	0.2274	1.0382	0.4032
					CHANNELS 3 Yrotation Xrotation Zrotation
					JOINT LeftArm
					{
						OFFSET	1.4730	-0.2267	-0.0231
						CHANNELS 3 Yrotation Xrotation Zrotation
						JOINT LeftForeArm
						{
							OFFSET	1.6131	-1.8059	0.0081
							CHANNELS 3 Yrotation Xrotation Zrotation
							JOINT LeftHand
							{
								OFFSET	1.2197	-1.2423	1.6317
								CHANNELS 3 Yrotation Xrotation Zrotation
								JOINT LThumb
								{
									OFFSET	0.0109	-0.0753	0.4387
									CHANNELS 3 Yrotation Xrotation Zrotation
									End Site
									{
										OFFSET -0.2090 -0.0868 0.2097
									}
								}
								JOINT LeftFingerBase
								{
									OFFSET	0.1071	-0.1567	0.2607
									CHANNELS 3 Yrotation Xrotation Zrotation
									JOINT LeftHandFinger1
									{
										OFFSET	0.1706	-0.2492	0.6830
										CHANNELS 3 Yrotation Xrotation Zrotation
										End Site
										{
											OFFSET 0.0335 -0.1507 0.2071
										}
									}
								}
							}
						}
					}
				}
				JOINT Neck
				{
					OFFSET	0.0000	1.7498	0.2381
					CHANNELS 3 Yrotation Xrotation Zrotation
					JOINT Neck1
					{
						OFFSET	0.0000	0.5043	0.1959
						CHANNELS 3 Yrotation Xrotation Zrotation
						JOINT Head
						{
							OFFSET	0.0000	0.5044	0.1959
							CHANNELS 3 Yrotation Xrotation Zrotation
							End Site
							{
								OFFSET 0.0000 1.4798 -0.0693
							}
						}
					}
				}
				JOINT RightShoulder
				{
					OFFSET	-0.2274	1.0382	0.4032
					CHANNELS 3 Yrotation Xrotation Zrotation
					JOINT RightArm
					{
						OFFSET	-1.4730	-0.2267	-0.0231
						CHANNELS 3 Yrotation Xrotation Zrotation
						JOINT RightForeArm
						{
							OFFSET	-1.6131	-1.8059	0.0081
							CHANNELS 3 Yrotation Xrotation Zrotation
							JOINT RightHand
							{
								OFFSET	-1.2197	-1.2423	1.6317
								CHANNELS 3 Yrotation Xrotation Zrotation
								JOINT RThumb
								{
									OFFSET	-0.0109	-0.0753	0.4387
									CHANNELS 3 Yrotation Xrotation Zrotation
									End Site
									{
										OFFSET 0.2090 -0.0868 0.2097
									}
								}
								JOINT RightFingerBase
								{
									OFFSET	-0.1071	-0.1567	0.2607
									CHANNELS 3 Yrotation Xrotation Zrotation
									JOINT RightHandFinger1
									{
										OFFSET	-0.1706	-0.2492	0.6830
										CHANNELS 3 Yrotation Xrotation Zrotation
										End Site
										{
											OFFSET -0.0335 -0.1507 0.2071
										}
									}
								}
							}
						}
					}
				}
			}
		}
	}
	JOINT RHipJoint
	{
		OFFSET	0.0000	0.0000	0.0000
		CHANNELS 3 Yrotation Xrotation Zrotation
		JOINT RightUpLeg
		{
			OFFSET	-1.0138	-0.0809	-0.0827
			CHANNELS 3 Yrotation Xrotation Zrotation
			JOINT RightLeg
			{
				OFFSET	-0.4110	-3.9095	0.3245
				CHANNELS 3 Yrotation Xrotation Zrotation
				JOINT RightFoot
				{
					OFFSET	-0.3810	-4.0555	-0.1470
					CHANNELS 3 Yrotation Xrotation Zrotation
					JOINT RightToeBase
					{
						OFFSET	-0.1396	-0.4462	1.3079
						CHANNELS 3 Yrotation Xrotation Zrotation
						End Site
						{
							OFFSET -0.0161 -0.0248 0.1809
						}
					}
				}
			}
		}
	}
}
MOTION
Frames: 10
Frame Time: 0.0333333
-0.0337 7.9105 -0.0723 2.9795 5.4420 -2.7990 0.0000 -0.0000 0.0000 7.3279 -35.8322 -11.6285 116.5309 67.6638 115.6058 -2.8496 -18.1975 10.5125 -2.8882 -0.8974 -6.5823 0.0000 -0.0000 0.0000 2.2995 8.1909 2.3357 5.0160 16.3382 4.0089 -1.2267 1.0883 0.2870 13.6475 23.7452 -24.9172 -55.3419 -34.3969 11.8617 -8.7404 -4.8449 13.0431 14.2128 -1.3007 2.7557 -65.7182 20.0083 -57.4476 -61.5461 6.6689 -46.0908 -1.0553 -2.4949 -0.0531 -1.0553 -2.4949 -0.0531 -8.7185 -16.4626 -3.1222 6.0546 0.7721 0.1922 -9.6425 7.2357 15.6118 36.0557 -31.1884 -3.5660 -5.8230 1.7107 -2.4013 -14.5004 3.2246 -7.9283 63.4522 29.0881 54.6631 66.2153 7.1639 50.7531 0.0000 -0.0000 0.0000 -5.7482 -17.0959 12.0248 -6.4416 47.5464 -4.4220 3.3019 -26.3328 -8.2046 13.2631 -11.7722 -2.5850 
0.0215 8.0990 1.5802 2.3696 5.4118 -2.0321 0.0000 -0.0000 0.0000 5.4582 -45.9143 -11.2203 81.6489 74.1001 77.9936 -0.4659 -18.6710 -3.1037 1.9532 0.6085 6.3139 0.0000 -0.0000 0.0000 4.3190 7.4734 2.0445 8.7982 14.9457 3.1230 -0.3582 1.1482 0.8434 15.6824 25.6512 -20.9302 -50.5323 -28.0864 8.8024 -9.9121 -3.4911 14.5280 14.2128 -1.3007 2.7557 -64.3597 20.5130 -56.3711 -60.3220 6.8889 -45.0974 -1.4772 -2.5365 -0.2352 -1.4772 -2.5365 -0.2352 -13.4467 -14.0594 -2.1952 7.6183 0.9713 -0.9642 -7.0690 0.8065 16.0473 37.4012 -34.5812 -4.9561 -5.3577 0.4026 -2.2354 -14.5758 3.3137 -8.0093 64.2738 28.8317 55.2810 66.8575 7.0022 51.2789 0.0000 -0.0000 0.0000 -7.3311 3.2544 9.3362 1.5818 31.0130 -0.6058 2.9028 -21.5770 -8.4346 14.9995 -19.5050 -4.3452 
0.0409 8.3950 3.2585 3.2363 5.0694 -1.2144 0.0000 -0.0000 0.0000 1.9211 -45.1799 -9.3564 30.9196 58.9543 23.2901 -1.4918 -15.3398 4.8684 -2.5749 -2.7493 0.7676 0.0000 -0.0000 0.0000 6.0657 6.6859 1.4001 12.0942 13.4347 1.9542 0.6404 1.2006 1.5629 16.3031 27.0821 -16.2342 -45.9032 -21.6151 6.6919 -10.3649 -3.1594 15.2587 14.2128 -1.3007 2.7557 -61.0630 21.6178 -53.7403 -57.3871 7.3279 -42.7094 -2.0767 -2.1997 -0.0227 -2.0767 -2.1996 -0.0227 -18.3561 -12.0858 -1.5688 8.4919 0.9772 -0.8130 -7.0851 -0.3903 16.2202 39.5221 -39.7706 -4.6472 -3.2002 -4.5758 1.5135 -14.7609 3.5313 -8.2081 66.2635 28.1714 56.7695 68.4213 6.5818 52.5574 0.0000 -0.0000 0.0000 -11.4654 21.3006 4.1720 11.6595 12.7894 1.3742 -0.7852 5.7036 4.1426 13.5591 -28.6240 -19.9527 
0.0710 8.6305 4.9826 5.5215 5.1145 0.2725 0.0000 -0.0000 0.0000 -1.5732 -37.9684 -10.3972 13.6785 28.6523 5.0632 -0.8722 -10.9236 4.5439 -4.0088 -3.9412 -1.0095 0.0000 -0.0000 0.0000 6.9645 5.6812 0.2260 13.9911 11.4912 0.0674 1.6158 1.2254 2.2889 16.0929 28.2094 -11.6416 -42.1991 -16.1692 5.5205 -10.3388 -3.4847 15.3673 14.2128 -1.3006 2.7557 -57.0298 22.7465 -50.4914 -53.8606 7.6917 -39.8315 -2.4488 -1.8487 -0.0413 -2.4488 -1.8487 -0.0413 -22.2869 -8.1524 -0.3192 7.8396 0.9057 -0.4605 -6.4166 -1.4881 15.8449 43.0665 -44.2031 -5.6798 0.6793 -8.1962 5.6858 -14.9940 3.8034 -8.4586 68.7119 27.2808 58.5846 70.3652 6.0067 54.1413 0.0000 -0.0000 0.0000 -17.1849 29.8922 -0.1662 14.1893 10.8687 -0.1186 0.0818 19.8750 10.9151 5.6492 -14.1668 -14.2345 
0.0763 8.6408 6.6444 5.8023 5.3571 0.5541 0.0000 -0.0000 0.0000 -4.7227 -37.7000 -9.4624 9.7053 15.9282 2.2631 -0.9790 -14.7781 3.5589 -3.4059 -3.5725 0.2831 0.0000 -0.0000 0.0000 7.7133 4.7597 -0.6931 15.4436 9.6937 -1.3516 2.3257 1.2213 2.7670 15.5395 29.0281 -8.0805 -39.8860 -12.8119 4.9293 -10.0467 -4.1179 14.9429 14.2128 -1.3007 2.7557 -53.5777 23.5255 -47.6891 -50.8930 7.8606 -37.4052 -2.7573 -1.0059 0.2444 -2.7574 -1.0058 0.2445 -24.0985 -6.8152 -0.2226 8.0530 0.8949 -0.3447 -5.7111 -1.8468 14.8524 47.6361 -44.8970 -9.2443 10.1347 -12.6852 5.7985 -15.2125 4.0559 -8.6932 70.9477 26.3897 60.2240 72.1616 5.4225 55.5987 0.0000 -0.0000 0.0000 -16.4025 33.6849 -1.7374 8.8981 19.8907 1.3748 0.1339 19.9378 9.0282 2.3796 -5.9697 -4.2394 
0.0933 8.6157 8.1978 3.9193 4.0455 -0.0662 0.0000 -0.0000 0.0000 -4.8332 -36.8079 -8.3819 4.3122 14.3930 0.1173 -1.4177 -18.2238 4.5859 -4.2652 -3.5190 -3.5795 0.0000 -0.0000 0.0000 7.9161 4.9460 -0.8183 15.8040 10.0429 -1.3598 2.4586 1.2078 2.6782 14.7001 28.7352 -6.1851 -39.0345 -11.7379 4.3308 -9.6437 -4.9060 14.0261 14.2128 -1.3007 2.7557 -52.1126 23.8055 -46.4949 -49.6465 7.8943 -36.3854 -2.6987 -0.4631 0.5336 -2.6987 -0.4631 0.5337 -22.1297 -7.0669 -0.9612 9.1145 1.0356 -1.0688 -4.3625 -1.4949 14.5723 49.9109 -44.9221 -9.7682 11.1260 -12.0878 6.0054 -15.3527 4.2168 -8.8435 72.3511 25.7914 61.2436 73.2997 5.0259 56.5187 0.0000 -0.0000 0.0000 -13.1738 33.4353 -1.6643 -5.5878 35.6350 -4.4252 0.2404 19.1569 8.6164 5.5247 -11.2747 -5.1775 
0.1016 8.5407 9.7136 4.3541 2.8537 0.0208 0.0000 -0.0000 0.0000 -5.3974 -31.4708 -9.1813 3.2070 10.9915 0.1643 -1.2600 -16.7396 4.8586 -3.9367 -3.4068 -2.5107 0.0000 -0.0000 0.0000 7.3435 5.5866 -0.9407 14.5078 11.2740 -1.3113 1.7861 1.1932 1.8722 13.0733 25.9164 -6.0230 -39.2224 -12.3956 3.3057 -9.1583 -5.9782 12.6511 14.2128 -1.3006 2.7557 -52.4892 23.7364 -46.8021 -49.9662 7.8878 -36.6470 -2.4293 -0.6481 0.1901 -2.4293 -0.6481 0.1902 -21.5964 -5.8604 0.5949 8.7232 1.1147 -1.6955 -4.5908 0.7031 14.8436 49.4934 -44.4222 -8.6993 10.8567 -11.8067 6.2011 -15.3740 4.2420 -8.8622 72.4395 25.7527 61.3076 73.3716 5.0001 56.5768 0.0000 -0.0000 0.0000 -11.7333 29.4328 -1.0617 -8.0046 55.7486 -6.1238 -0.1148 13.9143 5.1256 10.4994 -18.5248 -9.5341 
0.0917 8.3962 11.1316 6.2810 2.3459 0.2849 0.0000 -0.0000 0.0000 -6.0630 -26.4190 -11.1887 3.8788 11.3156 0.7765 -1.4911 -9.3043 11.4306 -4.0296 -3.7159 -1.7752 0.0000 -0.0000 0.0000 6.4509 6.4781 -1.0527 12.6180 13.0222 -1.3299 0.3192 1.1439 0.5750 10.2825 19.8084 -7.3977 -39.6698 -14.1139 1.8778 -8.5081 -7.5556 11.0474 14.2128 -1.3006 2.7556 -53.5186 23.5374 -47.6410 -50.8426 7.8624 -37.3641 -2.2895 -0.8596 0.1759 -2.2896 -0.8596 0.1759 -21.4300 -6.4013 2.9565 8.1053 1.0390 -1.3494 -7.4723 6.1819 16.2243 48.7996 -42.8207 -8.6612 13.2887 -13.9316 2.9946 -15.3751 4.2443 -8.8575 71.5817 26.1233 60.6856 72.6746 5.2463 56.0138 0.0000 -0.0000 0.0000 -9.0535 21.5494 0.6818 -30.9020 71.9825 -24.4565 0.1585 8.5103 4.5594 13.4727 -18.8368 -10.7558 
0.0643 8.0969 12.4608 6.3380 2.1577 0.5640 0.0000 -0.0000 0.0000 -4.3364 -30.2566 -11.7689 4.8531 32.2892 1.4248 -0.7355 -4.4351 10.8972 -4.1299 -4.7312 0.2169 0.0000 -0.0000 0.0000 5.4197 7.6285 -1.3740 10.3217 15.3363 -1.9738 -1.6547 1.0333 -0.6690 6.7616 11.4016 -10.1990 -39.7416 -16.5432 0.5266 -7.6163 -9.6523 9.7032 14.2128 -1.3007 2.7557 -55.0475 23.2145 -48.8844 -52.1511 7.8043 -38.4343 -2.0767 -1.5803 0.5620 -2.0767 -1.5803 0.5620 -19.2650 -9.0588 5.3495 7.0624 0.9091 -0.6755 -9.3731 10.7768 17.8357 43.4199 -38.8038 -5.3565 9.0163 -9.4848 4.9303 -15.3756 4.2455 -8.8551 70.0226 26.7677 59.5479 71.4157 5.6713 54.9944 0.0000 -0.0000 0.0000 -5.8491 9.3793 1.4195 -114.7839 82.5677 -106.4901 0.2990 1.4898 0.3123 10.4144 -17.0464 -8.5987 
0.0381 7.8264 13.7674 5.7060 3.1764 0.4575 0.0000 -0.0000 0.0000 -1.0197 -29.3314 -11.1883 4.6979 48.3642 -0.0491 -3.7040 -21.8558 13.1510 -4.3659 -4.8304 -0.3987 0.0000 -0.0000 0.0000 2.9951 8.3762 -1.4192 5.5718 16.8170 -2.5295 -3.6871 0.9096 -1.3574 3.6592 3.0666 -14.0028 -39.4955 -19.7445 -0.0460 -6.6348 -11.9136 9.0658 14.2128 -1.3007 2.7556 -56.9212 22.7736 -50.4035 -53.7665 7.6991 -39.7548 -1.4941 -2.0361 0.6256 -1.4941 -2.0361 0.6256 -15.1050 -14.2021 7.6327 5.9100 0.9298 -1.1645 -9.6707 13.2712 19.5905 34.4536 -29.0317 -0.2512 7.9942 -11.0387 3.4112 -15.3757 4.2457 -8.8546 67.9214 27.5780 58.0007 69.7347 6.1999 53.6285 0.0000 -0.0000 0.0000 -2.8951 -9.7006 0.9489 -169.0198 72.0727 -158.8663 0.6111 -2.9402 -1.6743 9.6306 -15.0484 -7.4510 
